<?xml version="1.0" standalone="no"?>
<!DOCTYPE svg PUBLIC "-//W3C//DTD SVG 20010904//EN"
 "http://www.w3.org/TR/2001/REC-SVG-20010904/DTD/svg10.dtd">
<svg version="1.0" xmlns="http://www.w3.org/2000/svg"
 width="239.000000pt" height="239.000000pt" viewBox="0 0 239.000000 239.000000"
 preserveAspectRatio="xMidYMid meet">
<metadata>
Created by potrace 1.14, written by Peter Selinger 2001-2017
</metadata>
<g transform="translate(0.000000,239.000000) scale(0.100000,-0.100000)"
fill="#000000" stroke="none">
<path d="M1938 2122 c-9 -4 -31 -34 -49 -67 -80 -151 -119 -215 -133 -215 -5
0 -17 -7 -26 -15 -15 -14 -19 -13 -42 9 -15 13 -41 34 -60 47 -18 13 -44 37
-57 52 -22 26 -26 28 -37 13 -13 -19 -40 -15 -112 16 -40 17 -43 20 -37 47 5
25 3 30 -17 36 -13 4 -30 13 -38 20 -15 13 -68 23 -146 29 -55 4 -137 -11
-206 -39 -32 -13 -60 -19 -63 -15 -3 5 -22 -7 -43 -26 -20 -19 -46 -37 -57
-40 -12 -3 -31 -29 -49 -66 l-28 -60 21 -28 21 -29 -33 -35 -33 -35 -22 21
c-20 20 -21 20 -20 2 3 -34 -23 -92 -47 -108 -18 -12 -25 -12 -28 -3 -3 6 -6
-14 -6 -45 -1 -51 -3 -58 -21 -58 -15 0 -20 -7 -20 -26 0 -26 -38 -90 -48 -80
-3 3 -10 -1 -16 -10 -11 -14 -17 -13 -61 4 -28 11 -93 40 -145 65 -107 51
-168 77 -181 77 -5 0 -9 -11 -9 -24 0 -22 -34 -93 -51 -106 -15 -12 -23 -72
-24 -175 0 -60 2 -112 5 -115 10 -8 40 -111 40 -134 0 -11 18 -41 40 -66 22
-25 40 -50 40 -57 0 -7 6 -10 14 -7 8 3 18 -6 26 -25 l12 -30 37 23 c34 21
119 69 218 123 52 27 70 22 83 -25 14 -52 13 -61 -10 -57 -36 7 -19 -28 19
-40 28 -8 89 -64 72 -66 -6 -1 -15 -3 -21 -4 -5 -1 -15 -3 -22 -4 -22 -2 25
-41 51 -42 16 0 35 -11 49 -29 22 -28 22 -31 7 -60 l-16 -30 40 0 c30 0 47 -7
66 -26 24 -24 25 -28 11 -43 -24 -26 -20 -31 25 -26 31 3 50 -2 80 -21 37 -23
40 -28 34 -60 l-5 -35 29 20 c24 17 34 19 55 11 26 -9 26 -11 10 -35 -16 -24
-15 -25 4 -25 11 0 25 7 32 15 13 15 33 15 92 0 22 -6 27 -13 30 -42 l3 -36
31 26 c33 28 54 34 54 17 0 -6 30 -10 70 -10 64 0 71 -2 79 -23 5 -13 16 -29
26 -37 20 -17 30 -5 46 56 11 41 26 55 76 69 18 5 23 -1 38 -45 9 -27 18 -50
20 -50 9 0 29 47 34 79 5 28 14 39 47 55 22 12 60 38 84 58 38 33 50 38 93 38
l50 0 -22 19 c-16 14 -20 26 -15 45 3 14 9 26 13 26 4 0 15 14 25 31 20 33 85
99 98 99 4 0 8 7 8 15 0 8 -9 15 -20 15 -17 0 -19 4 -14 28 4 15 10 34 14 42
5 8 7 19 7 23 -1 4 7 18 19 30 11 12 26 32 33 45 10 19 9 22 -9 22 -23 0 -24
3 -9 50 5 19 12 64 13 100 2 36 11 82 20 102 l16 38 -29 -6 c-27 -6 -29 -3
-40 41 -7 30 -9 73 -5 116 6 68 6 69 -17 69 -23 1 -23 1 -5 12 28 16 148 36
329 54 64 6 68 8 62 28 -4 11 -8 50 -9 86 -1 36 -6 72 -10 81 -4 9 -6 20 -4
25 3 11 -20 53 -39 72 -7 7 -13 22 -13 32 0 10 -13 27 -30 37 -16 9 -30 20
-30 23 0 10 -48 60 -58 60 -6 0 -19 10 -29 23 -16 21 -181 108 -200 106 -5 0
-16 -3 -25 -7z"/>
</g>
</svg>
